<svg width="62" height="50" viewBox="0 0 62 50" fill="none" xmlns="http://www.w3.org/2000/svg">
<rect x="3.48933" y="20.5845" width="49" height="25" transform="rotate(-17.9652 3.48933 20.5845)" stroke="#EAE8FE" stroke-width="2"/>
<rect x="7.26895" y="22.513" width="43" height="19" transform="rotate(-17.9652 7.26895 22.513)" stroke="#EAE8FE" stroke-width="2"/>
<path d="M25.2936 23.8861L23.0563 24.6116L22.5684 23.1067L24.8057 22.3812L25.2936 23.8861ZM20.9122 25.3068L19.5938 25.7343L20.1379 27.4123L29.2869 24.4457L28.7429 22.7677L27.4377 23.1909L26.9498 21.686L28.3881 21.2197L27.844 19.5417L18.4419 22.5903L18.986 24.2683L20.4243 23.8019L20.9122 25.3068ZM28.7218 30.7367L24.2605 32.1833L23.9971 31.371L28.4584 29.9244L28.7218 30.7367ZM31.1087 26.3422L30.5647 24.6643L19.2582 28.3304L19.8023 30.0084L24.3834 28.5229L24.6425 29.322L21.3398 30.3929L22.6828 34.5346L31.379 31.7148L30.0361 27.5731L26.8 28.6224L26.5409 27.8234L31.1087 26.3422ZM37.2348 18.8221L37.7832 20.5134L39.3813 19.9952L40.0895 22.1793L42.2469 21.4797L40.2087 15.1939L38.0513 15.8934L38.8329 18.3039L37.2348 18.8221ZM38.701 20.8928C36.73 20.9873 35.6568 20.1285 35.1696 19.0796L37.4069 18.3542L36.8628 16.6762L30.1242 18.8612L30.6683 20.5392L32.9189 19.8094C33.1485 20.9712 32.7733 22.4469 31.0722 23.646L32.6151 25.0002C33.9282 24.1476 34.5931 22.9754 34.8112 21.742C35.6505 22.5148 36.7979 22.9669 38.2463 22.8947L38.701 20.8928ZM37.4523 27.9353L37.3141 27.5092L43.5467 25.4883L42.3894 21.9192L34.0127 24.6353L34.5396 26.26L40.7854 24.2348L40.9193 24.6477L34.6867 26.6686L35.8526 30.2643L44.5223 27.4531L43.9911 25.8151L37.4523 27.9353Z" fill="#EAE8FE"/>
</svg>
